<?xml version="1.0" encoding="utf-8"?>
<!-- Generator: Adobe Illustrator 25.0.0, SVG Export Plug-In . SVG Version: 6.00 Build 0)  -->
<svg version="1.1" id="Camada_1" xmlns="http://www.w3.org/2000/svg" xmlns:xlink="http://www.w3.org/1999/xlink" x="0px" y="0px"
	 viewBox="0 0 188 77" style="enable-background:new 0 0 188 77;" xml:space="preserve">
<style type="text/css">
	.st0{fill:#fff;}
	.st1{fill:#fff;}
</style>
<g>
	<g>
		<path class="st0" d="M133.6,9.58V8.56h8.18V2.89H46.22v5.67h8.19v1.02h-8.19v5.51h8.19v1.03h-8.19v5.68h8.19v1.02h-8.19v5.77h8.19
			v1.02h-8.19v5.53h8.19v1.02h-8.19v5.61h95.56v-5.61h-8.18v-1.02h8.18v-5.53h-8.18v-1.02h8.18v-5.77h-8.18V21.8h8.18v-5.68h-8.18
			v-1.03h8.18V9.58H133.6z M72.93,13.35c-4.39,0-6.29,5.16-7.17,9.29c-0.85,4.01-0.98,8.75,3.34,8.75c3.22,0,5.35-1.41,6.06-4.05
			h8.02c-1.36,6.95-8.53,9.41-15.22,9.41c-8.6,0-12.13-5.16-10.16-14.41C59.76,13.08,65.45,8.08,74.07,8
			c5.51,0,10.67,1.56,11.42,6.01c0.12,0.72,0.13,1.5,0,2.37c-0.04,0.28-0.09,0.57-0.16,0.87H77.3
			C77.63,14.76,76.07,13.35,72.93,13.35 M101.71,36.16l-4.87-21.13h-0.08l-4.49,21.13h-6.79h-0.09l0.09-0.44l5.77-27.15h10.7
			l4.88,20.56l0.09-0.08l4.36-20.48h6.45h0.43l-0.43,2.02l-5.43,25.57H101.71z M124.94,36.16h-7.21h-0.43l0.43-2.02l5.44-25.57h7.64
			L124.94,36.16z"/>
	</g>
	<g>
		<g>
			<path class="st0" d="M12.12,50.8c0-0.07,0-0.18-0.01-0.33c0-0.15-0.05-0.31-0.13-0.46c-0.08-0.16-0.22-0.29-0.42-0.41
				c-0.2-0.12-0.49-0.18-0.87-0.18c-0.48,0-0.89,0.11-1.23,0.32c-0.34,0.22-0.63,0.49-0.86,0.82c-0.23,0.33-0.41,0.69-0.55,1.07
				c-0.14,0.38-0.24,0.74-0.31,1.07c-0.08,0.37-0.13,0.75-0.14,1.12c-0.01,0.37,0.03,0.7,0.14,1c0.11,0.3,0.28,0.54,0.53,0.72
				c0.25,0.18,0.6,0.28,1.06,0.28c0.24,0,0.48-0.03,0.72-0.1c0.24-0.07,0.46-0.19,0.67-0.37c0.18-0.15,0.32-0.31,0.4-0.46
				c0.08-0.15,0.14-0.28,0.17-0.37h1.21c-0.13,0.39-0.31,0.72-0.56,1c-0.25,0.28-0.52,0.51-0.84,0.69c-0.31,0.18-0.65,0.31-1,0.4
				s-0.7,0.13-1.04,0.13c-0.7,0-1.24-0.13-1.62-0.41c-0.38-0.27-0.65-0.61-0.8-1.02s-0.22-0.84-0.21-1.31
				c0.01-0.46,0.06-0.89,0.14-1.28c0.06-0.28,0.14-0.57,0.25-0.89c0.11-0.32,0.24-0.63,0.41-0.93c0.17-0.31,0.37-0.6,0.6-0.89
				c0.23-0.28,0.5-0.53,0.8-0.75c0.3-0.22,0.64-0.39,1.03-0.52c0.39-0.13,0.81-0.19,1.28-0.19c0.28,0,0.57,0.03,0.88,0.1
				c0.3,0.07,0.58,0.18,0.82,0.35c0.24,0.17,0.43,0.4,0.56,0.69c0.13,0.29,0.17,0.66,0.11,1.11H12.12z"/>
		</g>
		<g>
			<path class="st0" d="M13.55,54.04c0.07-0.32,0.18-0.65,0.33-0.98c0.15-0.33,0.36-0.64,0.63-0.91c0.26-0.27,0.58-0.49,0.96-0.67
				c0.38-0.17,0.82-0.26,1.33-0.26c0.52,0,0.93,0.09,1.22,0.28c0.3,0.18,0.51,0.41,0.64,0.69c0.13,0.27,0.2,0.57,0.2,0.89
				c0,0.32-0.02,0.61-0.08,0.89c-0.08,0.38-0.22,0.74-0.4,1.08c-0.18,0.34-0.41,0.64-0.68,0.89c-0.27,0.25-0.59,0.46-0.96,0.6
				c-0.37,0.15-0.77,0.23-1.22,0.23c-0.43,0-0.79-0.07-1.08-0.21c-0.29-0.14-0.52-0.34-0.68-0.58c-0.16-0.24-0.26-0.53-0.3-0.87
				C13.44,54.78,13.46,54.43,13.55,54.04z M14.58,53.98c-0.06,0.27-0.08,0.53-0.07,0.78c0.01,0.25,0.05,0.47,0.14,0.66
				c0.09,0.19,0.22,0.34,0.39,0.46s0.4,0.17,0.68,0.17c0.19,0,0.38-0.04,0.59-0.11c0.2-0.07,0.4-0.19,0.58-0.35
				c0.18-0.16,0.35-0.38,0.51-0.65c0.15-0.27,0.27-0.6,0.35-1c0.14-0.65,0.11-1.15-0.1-1.48c-0.21-0.34-0.54-0.51-1-0.51
				c-0.16,0-0.34,0.03-0.54,0.09c-0.2,0.06-0.4,0.16-0.6,0.31c-0.2,0.15-0.38,0.36-0.55,0.62C14.8,53.24,14.67,53.57,14.58,53.98z"
				/>
			<path class="st0" d="M20.77,51.97l0.13-0.6h0.98l-0.18,0.84c0.04-0.05,0.11-0.13,0.2-0.24c0.09-0.1,0.21-0.21,0.36-0.31
				c0.15-0.1,0.33-0.2,0.55-0.28c0.22-0.08,0.48-0.12,0.78-0.12c0.12,0,0.28,0.02,0.48,0.05c0.2,0.03,0.4,0.11,0.58,0.23
				c0.18,0.12,0.32,0.3,0.43,0.54c0.1,0.24,0.11,0.56,0.02,0.96l-0.75,3.55h-1l0.71-3.32c0.03-0.17,0.05-0.34,0.05-0.49
				c0-0.15-0.05-0.29-0.14-0.41c-0.1-0.12-0.22-0.21-0.38-0.26c-0.15-0.06-0.31-0.09-0.48-0.09c-0.18,0-0.36,0.03-0.54,0.09
				c-0.18,0.06-0.34,0.16-0.49,0.29c-0.15,0.13-0.29,0.3-0.4,0.49c-0.11,0.19-0.2,0.42-0.27,0.69l-0.64,3.01h-0.98L20.77,51.97z"/>
			<path class="st0" d="M30.19,49.8c-0.08-0.01-0.18-0.01-0.28-0.02c-0.1,0-0.2-0.01-0.3-0.01c-0.2,0-0.36,0.02-0.47,0.07
				s-0.2,0.1-0.27,0.18c-0.07,0.07-0.11,0.16-0.14,0.25c-0.03,0.09-0.05,0.18-0.07,0.27l-0.17,0.82h1.22l-0.16,0.71h-1.22
				l-0.96,4.52h-0.97l0.96-4.52h-1.03l0.16-0.71h1.03l0.13-0.59c0.03-0.18,0.07-0.34,0.1-0.46c0.03-0.13,0.07-0.24,0.1-0.33
				c0.03-0.09,0.07-0.18,0.12-0.24c0.05-0.07,0.1-0.14,0.15-0.21c0.15-0.17,0.34-0.3,0.57-0.41c0.24-0.11,0.52-0.16,0.87-0.16
				c0.14,0,0.28,0.01,0.42,0.03c0.14,0.02,0.27,0.03,0.37,0.05L30.19,49.8z"/>
			<path class="st0" d="M30.71,54.16c-0.07,0.27-0.1,0.52-0.09,0.75s0.05,0.43,0.14,0.6c0.09,0.17,0.21,0.3,0.39,0.4
				c0.17,0.09,0.39,0.14,0.66,0.14c0.32,0,0.61-0.09,0.88-0.26c0.27-0.17,0.46-0.45,0.58-0.82h0.98c-0.04,0.13-0.11,0.3-0.2,0.49
				c-0.09,0.2-0.25,0.4-0.48,0.6c-0.07,0.06-0.16,0.14-0.28,0.22c-0.11,0.08-0.25,0.16-0.41,0.23c-0.16,0.07-0.34,0.13-0.55,0.18
				c-0.21,0.05-0.44,0.07-0.71,0.07c-0.83,0-1.39-0.24-1.68-0.72s-0.36-1.13-0.18-1.96c0.11-0.51,0.28-0.98,0.51-1.4
				c0.23-0.42,0.58-0.77,1.05-1.06c0.14-0.09,0.28-0.16,0.43-0.21c0.15-0.05,0.29-0.09,0.42-0.11c0.14-0.03,0.26-0.05,0.37-0.05
				c0.11-0.01,0.2-0.01,0.28-0.01c0.39,0,0.71,0.05,0.95,0.16c0.25,0.1,0.44,0.24,0.57,0.41c0.13,0.17,0.22,0.36,0.27,0.57
				c0.05,0.21,0.06,0.43,0.05,0.65c-0.01,0.22-0.04,0.43-0.08,0.63c-0.04,0.2-0.08,0.37-0.1,0.51H30.71z M33.62,53.47
				c0.03-0.13,0.05-0.28,0.06-0.45c0.01-0.18-0.01-0.34-0.06-0.51c-0.05-0.16-0.15-0.3-0.3-0.41c-0.15-0.11-0.37-0.17-0.67-0.17
				c-0.16,0-0.33,0.03-0.51,0.08c-0.18,0.05-0.35,0.14-0.51,0.26c-0.16,0.12-0.31,0.28-0.44,0.47c-0.13,0.19-0.23,0.44-0.3,0.73
				H33.62z"/>
			<path class="st0" d="M40.61,49.08h0.98l-1.42,6.68c-0.01,0.03-0.02,0.08-0.03,0.14c-0.01,0.07-0.02,0.14-0.04,0.22
				c-0.01,0.08-0.03,0.16-0.04,0.24c-0.01,0.08-0.02,0.16-0.03,0.23h-0.98l0.16-0.83c-0.06,0.08-0.13,0.16-0.21,0.26
				c-0.09,0.1-0.21,0.19-0.37,0.29c-0.25,0.15-0.5,0.25-0.74,0.3c-0.24,0.05-0.46,0.08-0.64,0.08c-0.17,0-0.38-0.03-0.63-0.09
				c-0.24-0.06-0.46-0.19-0.66-0.37c-0.2-0.19-0.35-0.46-0.44-0.8c-0.1-0.35-0.08-0.81,0.04-1.39c0.1-0.5,0.26-0.93,0.47-1.29
				c0.21-0.36,0.45-0.65,0.72-0.89c0.27-0.23,0.56-0.4,0.87-0.52c0.31-0.11,0.61-0.17,0.92-0.17c0.28,0,0.51,0.04,0.69,0.11
				c0.18,0.07,0.32,0.16,0.43,0.25c0.1,0.1,0.18,0.19,0.22,0.29c0.05,0.1,0.08,0.17,0.1,0.23L40.61,49.08z M39.62,53.91
				c0.08-0.38,0.11-0.69,0.08-0.91c-0.03-0.23-0.09-0.41-0.16-0.55c-0.08-0.14-0.2-0.26-0.37-0.37c-0.17-0.11-0.39-0.16-0.67-0.16
				c-0.24,0-0.45,0.04-0.64,0.13c-0.18,0.09-0.34,0.2-0.47,0.33c-0.13,0.13-0.25,0.28-0.34,0.45c-0.09,0.16-0.17,0.32-0.23,0.48
				c-0.06,0.16-0.11,0.3-0.14,0.43s-0.05,0.22-0.06,0.28c-0.05,0.23-0.08,0.46-0.09,0.7c-0.01,0.24,0.01,0.45,0.07,0.64
				c0.06,0.19,0.18,0.35,0.34,0.47c0.16,0.12,0.39,0.18,0.69,0.18c0.38,0,0.7-0.09,0.95-0.27c0.25-0.18,0.45-0.39,0.59-0.63
				c0.15-0.24,0.25-0.47,0.32-0.7S39.6,54.01,39.62,53.91z"/>
			<path class="st0" d="M42.87,54.16c-0.07,0.27-0.1,0.52-0.09,0.75c0.01,0.23,0.05,0.43,0.14,0.6c0.09,0.17,0.21,0.3,0.39,0.4
				c0.17,0.09,0.39,0.14,0.66,0.14c0.32,0,0.61-0.09,0.88-0.26c0.27-0.17,0.46-0.45,0.58-0.82h0.98c-0.04,0.13-0.11,0.3-0.2,0.49
				c-0.09,0.2-0.25,0.4-0.48,0.6c-0.07,0.06-0.16,0.14-0.28,0.22c-0.11,0.08-0.25,0.16-0.41,0.23c-0.16,0.07-0.34,0.13-0.55,0.18
				c-0.21,0.05-0.44,0.07-0.71,0.07c-0.83,0-1.39-0.24-1.68-0.72c-0.3-0.48-0.36-1.13-0.18-1.96c0.11-0.51,0.28-0.98,0.51-1.4
				c0.23-0.42,0.58-0.77,1.05-1.06c0.14-0.09,0.28-0.16,0.43-0.21c0.15-0.05,0.29-0.09,0.42-0.11c0.14-0.03,0.26-0.05,0.37-0.05
				c0.11-0.01,0.2-0.01,0.28-0.01c0.39,0,0.71,0.05,0.95,0.16c0.25,0.1,0.44,0.24,0.57,0.41c0.13,0.17,0.22,0.36,0.27,0.57
				c0.05,0.21,0.06,0.43,0.05,0.65c-0.01,0.22-0.04,0.43-0.08,0.63c-0.04,0.2-0.08,0.37-0.1,0.51H42.87z M45.78,53.47
				c0.03-0.13,0.05-0.28,0.06-0.45c0.01-0.18-0.01-0.34-0.06-0.51s-0.15-0.3-0.3-0.41c-0.15-0.11-0.37-0.17-0.67-0.17
				c-0.16,0-0.33,0.03-0.51,0.08c-0.18,0.05-0.35,0.14-0.51,0.26c-0.16,0.12-0.31,0.28-0.44,0.47c-0.13,0.19-0.23,0.44-0.3,0.73
				H45.78z"/>
			<path class="st0" d="M48.49,52.43c0.04-0.18,0.08-0.36,0.1-0.54c0.02-0.18,0.05-0.35,0.08-0.53h0.99l-0.2,1.01
				c0.09-0.18,0.19-0.33,0.31-0.46c0.12-0.12,0.24-0.23,0.38-0.31c0.14-0.08,0.27-0.14,0.41-0.18c0.14-0.04,0.26-0.07,0.37-0.08
				c0.15-0.02,0.28-0.03,0.4-0.03c0.11,0,0.21,0,0.29,0.01l-0.21,0.96c-0.04-0.01-0.1-0.03-0.18-0.04
				c-0.03-0.01-0.08-0.01-0.12-0.01c-0.05,0-0.1,0-0.16,0c-0.29,0-0.54,0.04-0.74,0.12c-0.2,0.08-0.37,0.19-0.51,0.33
				s-0.24,0.31-0.32,0.51c-0.08,0.19-0.14,0.4-0.19,0.63l-0.59,2.78H47.6L48.49,52.43z"/>
			<path class="st0" d="M54.79,56.6c-0.01-0.13,0-0.26,0.01-0.39c0.01-0.12,0.03-0.26,0.06-0.4c-0.17,0.21-0.33,0.39-0.5,0.51
				c-0.17,0.13-0.33,0.22-0.49,0.29c-0.16,0.06-0.31,0.11-0.45,0.12c-0.14,0.02-0.26,0.03-0.38,0.03c-0.3,0-0.56-0.04-0.77-0.12
				c-0.22-0.08-0.39-0.19-0.51-0.33c-0.13-0.14-0.21-0.3-0.25-0.49c-0.04-0.19-0.04-0.39,0.01-0.6c0.02-0.1,0.06-0.22,0.11-0.35
				c0.05-0.13,0.13-0.27,0.22-0.4c0.1-0.14,0.22-0.27,0.37-0.41c0.15-0.13,0.33-0.26,0.54-0.37c0.16-0.08,0.33-0.14,0.5-0.18
				c0.17-0.04,0.35-0.08,0.52-0.1c0.17-0.02,0.34-0.04,0.48-0.05c0.15-0.01,0.28-0.01,0.38-0.01c0.13,0,0.24,0,0.33,0.01
				c0.1,0,0.22,0.01,0.37,0.03c0.03-0.16,0.06-0.3,0.08-0.42c0.02-0.12,0.03-0.23,0.04-0.31c0.01-0.09,0.01-0.16,0-0.23
				c-0.01-0.07-0.03-0.13-0.07-0.19c-0.07-0.13-0.19-0.22-0.36-0.27c-0.17-0.05-0.33-0.07-0.47-0.07c-0.25,0-0.45,0.04-0.6,0.11
				c-0.15,0.07-0.27,0.16-0.36,0.26c-0.09,0.1-0.15,0.2-0.19,0.3c-0.04,0.1-0.06,0.18-0.08,0.23h-0.98c0.04-0.14,0.1-0.29,0.18-0.46
				c0.08-0.17,0.21-0.35,0.4-0.53c0.13-0.11,0.26-0.2,0.42-0.28c0.15-0.07,0.31-0.13,0.47-0.17c0.16-0.04,0.32-0.07,0.48-0.09
				c0.16-0.02,0.31-0.03,0.45-0.03c0.19,0,0.37,0.02,0.56,0.05c0.18,0.03,0.35,0.08,0.51,0.14c0.15,0.06,0.28,0.14,0.4,0.24
				c0.11,0.1,0.19,0.21,0.23,0.34c0.05,0.16,0.07,0.3,0.06,0.43c-0.01,0.13-0.03,0.25-0.05,0.37l-0.57,2.5
				c-0.01,0.02-0.02,0.08-0.03,0.17s-0.03,0.2-0.06,0.32c-0.02,0.12-0.05,0.26-0.07,0.41c-0.02,0.15-0.03,0.28-0.04,0.42H54.79z
				 M55.22,54.05c-0.09-0.01-0.18-0.02-0.26-0.03c-0.08,0-0.18-0.01-0.3-0.01c-0.1,0-0.25,0.01-0.46,0.02
				c-0.21,0.01-0.43,0.05-0.66,0.11c-0.23,0.07-0.43,0.17-0.63,0.32c-0.19,0.15-0.31,0.35-0.37,0.61c-0.02,0.08-0.03,0.18-0.02,0.28
				c0.01,0.1,0.05,0.2,0.1,0.3c0.06,0.09,0.15,0.17,0.28,0.23c0.13,0.06,0.3,0.09,0.52,0.09c0.5,0,0.91-0.19,1.24-0.56
				c0.08-0.09,0.14-0.18,0.19-0.26c0.05-0.08,0.09-0.18,0.13-0.28c0.03-0.1,0.07-0.22,0.1-0.36C55.13,54.39,55.17,54.23,55.22,54.05
				z"/>
			<path class="st0" d="M61.78,54.86c-0.06,0.24-0.16,0.47-0.3,0.69c-0.14,0.22-0.31,0.41-0.51,0.58s-0.44,0.3-0.69,0.41
				s-0.54,0.17-0.84,0.19l-0.44,0.48c0.06-0.01,0.12-0.03,0.18-0.04c0.07-0.01,0.14-0.02,0.23-0.02c0.15,0,0.28,0.02,0.37,0.07
				c0.09,0.05,0.16,0.11,0.21,0.18c0.05,0.07,0.08,0.15,0.09,0.24c0.01,0.09,0.01,0.17-0.01,0.24c-0.01,0.02-0.03,0.08-0.06,0.18
				c-0.03,0.1-0.1,0.21-0.21,0.32c-0.1,0.11-0.25,0.21-0.44,0.3s-0.45,0.13-0.77,0.13c-0.24,0-0.43-0.02-0.57-0.06
				c-0.14-0.04-0.26-0.09-0.36-0.15l0.28-0.39c0.06,0.04,0.13,0.07,0.23,0.1c0.1,0.03,0.24,0.05,0.43,0.05
				c0.18,0,0.33-0.03,0.44-0.1c0.11-0.07,0.18-0.17,0.21-0.31c0.02-0.09,0.02-0.16-0.01-0.22c-0.03-0.05-0.07-0.1-0.12-0.12
				s-0.11-0.05-0.17-0.05c-0.06-0.01-0.11-0.01-0.15-0.01c-0.08,0-0.14,0.01-0.19,0.02c-0.05,0.01-0.12,0.04-0.19,0.06l-0.13-0.18
				l0.69-0.74c-0.4-0.05-0.71-0.16-0.94-0.32c-0.23-0.16-0.4-0.37-0.51-0.6c-0.11-0.24-0.16-0.51-0.16-0.8c0-0.3,0.03-0.6,0.09-0.9
				c0.12-0.58,0.3-1.06,0.54-1.43c0.23-0.37,0.49-0.66,0.78-0.88c0.29-0.21,0.58-0.36,0.87-0.44c0.29-0.08,0.55-0.12,0.8-0.12
				c0.08,0,0.19,0.01,0.33,0.02s0.27,0.04,0.41,0.09c0.14,0.05,0.27,0.11,0.41,0.19c0.13,0.08,0.24,0.2,0.32,0.34
				c0.15,0.22,0.22,0.44,0.22,0.64s-0.01,0.38-0.03,0.53h-0.99c0.01-0.06,0.01-0.16,0.02-0.28c0.01-0.12-0.01-0.24-0.06-0.37
				s-0.13-0.23-0.24-0.32s-0.29-0.13-0.53-0.13c-0.34,0-0.62,0.08-0.84,0.25c-0.22,0.17-0.39,0.36-0.53,0.58
				c-0.13,0.22-0.23,0.44-0.29,0.66c-0.06,0.22-0.1,0.38-0.12,0.47c-0.06,0.27-0.1,0.53-0.11,0.78c-0.01,0.25,0.01,0.47,0.06,0.66
				c0.06,0.19,0.15,0.35,0.3,0.46c0.14,0.11,0.35,0.17,0.61,0.17c0.21,0,0.39-0.03,0.55-0.1c0.16-0.07,0.29-0.16,0.4-0.27
				c0.11-0.11,0.2-0.23,0.27-0.37c0.07-0.13,0.12-0.27,0.15-0.39H61.78z"/>
			<path class="st0" d="M65.8,56.6c-0.01-0.13,0-0.26,0.01-0.39c0.01-0.12,0.03-0.26,0.06-0.4c-0.17,0.21-0.33,0.39-0.5,0.51
				c-0.17,0.13-0.33,0.22-0.49,0.29c-0.16,0.06-0.31,0.11-0.45,0.12c-0.14,0.02-0.26,0.03-0.38,0.03c-0.3,0-0.56-0.04-0.77-0.12
				c-0.22-0.08-0.39-0.19-0.51-0.33c-0.13-0.14-0.21-0.3-0.25-0.49c-0.04-0.19-0.04-0.39,0.01-0.6c0.02-0.1,0.06-0.22,0.11-0.35
				c0.05-0.13,0.13-0.27,0.22-0.4c0.1-0.14,0.22-0.27,0.37-0.41c0.15-0.13,0.33-0.26,0.54-0.37c0.16-0.08,0.33-0.14,0.5-0.18
				c0.17-0.04,0.35-0.08,0.52-0.1c0.17-0.02,0.34-0.04,0.48-0.05c0.15-0.01,0.28-0.01,0.38-0.01c0.13,0,0.24,0,0.33,0.01
				c0.1,0,0.22,0.01,0.37,0.03c0.03-0.16,0.06-0.3,0.08-0.42c0.02-0.12,0.03-0.23,0.04-0.31c0.01-0.09,0.01-0.16,0-0.23
				c-0.01-0.07-0.03-0.13-0.07-0.19c-0.07-0.13-0.19-0.22-0.36-0.27c-0.17-0.05-0.33-0.07-0.47-0.07c-0.25,0-0.45,0.04-0.6,0.11
				c-0.15,0.07-0.27,0.16-0.36,0.26c-0.09,0.1-0.15,0.2-0.19,0.3c-0.04,0.1-0.06,0.18-0.08,0.23h-0.98c0.04-0.14,0.1-0.29,0.18-0.46
				c0.08-0.17,0.21-0.35,0.4-0.53c0.13-0.11,0.26-0.2,0.42-0.28c0.15-0.07,0.31-0.13,0.47-0.17c0.16-0.04,0.32-0.07,0.48-0.09
				c0.16-0.02,0.31-0.03,0.45-0.03c0.19,0,0.37,0.02,0.56,0.05c0.18,0.03,0.35,0.08,0.51,0.14c0.15,0.06,0.28,0.14,0.4,0.24
				c0.11,0.1,0.19,0.21,0.23,0.34c0.05,0.16,0.07,0.3,0.06,0.43c-0.01,0.13-0.03,0.25-0.05,0.37l-0.57,2.5
				c-0.01,0.02-0.02,0.08-0.03,0.17s-0.03,0.2-0.06,0.32c-0.02,0.12-0.05,0.26-0.07,0.41c-0.02,0.15-0.03,0.28-0.04,0.42H65.8z
				 M66.23,54.05c-0.09-0.01-0.18-0.02-0.26-0.03c-0.08,0-0.18-0.01-0.3-0.01c-0.1,0-0.25,0.01-0.46,0.02
				c-0.21,0.01-0.43,0.05-0.66,0.11c-0.23,0.07-0.43,0.17-0.63,0.32c-0.19,0.15-0.31,0.35-0.37,0.61c-0.02,0.08-0.03,0.18-0.02,0.28
				c0.01,0.1,0.05,0.2,0.1,0.3c0.06,0.09,0.15,0.17,0.28,0.23c0.13,0.06,0.3,0.09,0.52,0.09c0.5,0,0.91-0.19,1.24-0.56
				c0.08-0.09,0.14-0.18,0.19-0.26c0.05-0.08,0.09-0.18,0.13-0.28c0.03-0.1,0.07-0.22,0.1-0.36C66.14,54.39,66.18,54.23,66.23,54.05
				z M64.48,50.22c0.08-0.3,0.21-0.54,0.41-0.73c0.2-0.19,0.43-0.29,0.7-0.29c0.04,0,0.08,0,0.11,0.01c0.03,0,0.08,0.01,0.13,0.03
				s0.11,0.03,0.2,0.05c0.08,0.02,0.19,0.05,0.32,0.09c0.08,0.02,0.14,0.04,0.2,0.05c0.06,0.01,0.11,0.02,0.18,0.02
				c0.13,0,0.23-0.04,0.31-0.1c0.08-0.07,0.13-0.16,0.16-0.28h0.43c-0.03,0.2-0.1,0.37-0.18,0.51c-0.09,0.13-0.18,0.24-0.29,0.32
				c-0.1,0.08-0.21,0.14-0.33,0.17c-0.11,0.03-0.22,0.05-0.31,0.05c-0.1,0-0.19-0.01-0.28-0.03c-0.09-0.02-0.2-0.05-0.34-0.1
				c-0.1-0.03-0.19-0.06-0.29-0.09c-0.1-0.03-0.16-0.05-0.2-0.05c-0.08,0-0.15,0.02-0.23,0.07c-0.08,0.05-0.16,0.15-0.24,0.3H64.48z
				"/>
			<path class="st0" d="M68.56,54.04c0.07-0.32,0.18-0.65,0.33-0.98c0.15-0.33,0.36-0.64,0.63-0.91c0.26-0.27,0.58-0.49,0.96-0.67
				c0.38-0.17,0.82-0.26,1.33-0.26c0.52,0,0.93,0.09,1.22,0.28c0.3,0.18,0.51,0.41,0.64,0.69c0.13,0.27,0.2,0.57,0.2,0.89
				c0,0.32-0.02,0.61-0.08,0.89c-0.08,0.38-0.22,0.74-0.4,1.08c-0.18,0.34-0.41,0.64-0.68,0.89c-0.27,0.25-0.59,0.46-0.96,0.6
				c-0.37,0.15-0.77,0.23-1.22,0.23c-0.43,0-0.79-0.07-1.08-0.21c-0.29-0.14-0.52-0.34-0.68-0.58c-0.16-0.24-0.26-0.53-0.3-0.87
				C68.45,54.78,68.48,54.43,68.56,54.04z M69.59,53.98c-0.06,0.27-0.08,0.53-0.07,0.78c0.01,0.25,0.05,0.47,0.14,0.66
				c0.09,0.19,0.22,0.34,0.39,0.46s0.4,0.17,0.68,0.17c0.19,0,0.38-0.04,0.59-0.11s0.4-0.19,0.58-0.35
				c0.18-0.16,0.35-0.38,0.51-0.65c0.15-0.27,0.27-0.6,0.35-1c0.14-0.65,0.11-1.15-0.1-1.48c-0.21-0.34-0.54-0.51-1-0.51
				c-0.16,0-0.34,0.03-0.54,0.09c-0.2,0.06-0.4,0.16-0.6,0.31c-0.2,0.15-0.38,0.36-0.55,0.62C69.81,53.24,69.68,53.57,69.59,53.98z"
				/>
			<path class="st0" d="M79.33,49.07h1.45l2.39,6.22l1.31-6.22h0.96l-1.59,7.52h-1.33l-2.47-6.39l-1.35,6.39h-0.95L79.33,49.07z"/>
			<path class="st0" d="M88.96,56.6c-0.01-0.13,0-0.26,0.01-0.39c0.01-0.12,0.03-0.26,0.06-0.4c-0.17,0.21-0.33,0.39-0.5,0.51
				c-0.17,0.13-0.33,0.22-0.49,0.29c-0.16,0.06-0.31,0.11-0.45,0.12c-0.14,0.02-0.26,0.03-0.38,0.03c-0.3,0-0.56-0.04-0.77-0.12
				c-0.22-0.08-0.39-0.19-0.51-0.33c-0.13-0.14-0.21-0.3-0.25-0.49c-0.04-0.19-0.04-0.39,0.01-0.6c0.02-0.1,0.06-0.22,0.11-0.35
				c0.05-0.13,0.13-0.27,0.22-0.4c0.1-0.14,0.22-0.27,0.37-0.41c0.15-0.13,0.33-0.26,0.54-0.37c0.16-0.08,0.33-0.14,0.5-0.18
				c0.17-0.04,0.35-0.08,0.52-0.1c0.17-0.02,0.34-0.04,0.48-0.05c0.15-0.01,0.28-0.01,0.38-0.01c0.13,0,0.24,0,0.33,0.01
				c0.1,0,0.22,0.01,0.37,0.03c0.03-0.16,0.06-0.3,0.08-0.42c0.02-0.12,0.03-0.23,0.04-0.31c0.01-0.09,0.01-0.16,0-0.23
				c-0.01-0.07-0.03-0.13-0.07-0.19c-0.07-0.13-0.19-0.22-0.36-0.27c-0.17-0.05-0.33-0.07-0.47-0.07c-0.25,0-0.45,0.04-0.6,0.11
				c-0.15,0.07-0.27,0.16-0.36,0.26c-0.09,0.1-0.15,0.2-0.19,0.3c-0.04,0.1-0.06,0.18-0.08,0.23h-0.98c0.04-0.14,0.1-0.29,0.18-0.46
				c0.08-0.17,0.21-0.35,0.4-0.53c0.13-0.11,0.26-0.2,0.42-0.28c0.15-0.07,0.31-0.13,0.47-0.17c0.16-0.04,0.32-0.07,0.48-0.09
				c0.16-0.02,0.31-0.03,0.45-0.03c0.19,0,0.37,0.02,0.56,0.05c0.18,0.03,0.35,0.08,0.51,0.14c0.15,0.06,0.28,0.14,0.4,0.24
				c0.11,0.1,0.19,0.21,0.23,0.34c0.05,0.16,0.07,0.3,0.06,0.43c-0.01,0.13-0.03,0.25-0.05,0.37l-0.57,2.5
				c-0.01,0.02-0.02,0.08-0.03,0.17s-0.03,0.2-0.06,0.32c-0.02,0.12-0.05,0.26-0.07,0.41c-0.02,0.15-0.03,0.28-0.04,0.42H88.96z
				 M89.39,54.05c-0.09-0.01-0.18-0.02-0.26-0.03c-0.08,0-0.18-0.01-0.3-0.01c-0.1,0-0.25,0.01-0.46,0.02
				c-0.21,0.01-0.43,0.05-0.66,0.11c-0.23,0.07-0.43,0.17-0.63,0.32c-0.19,0.15-0.31,0.35-0.37,0.61c-0.02,0.08-0.03,0.18-0.02,0.28
				c0.01,0.1,0.05,0.2,0.1,0.3c0.06,0.09,0.15,0.17,0.28,0.23c0.13,0.06,0.3,0.09,0.52,0.09c0.5,0,0.91-0.19,1.24-0.56
				c0.08-0.09,0.14-0.18,0.19-0.26c0.05-0.08,0.09-0.18,0.13-0.28c0.03-0.1,0.07-0.22,0.1-0.36C89.3,54.39,89.34,54.23,89.39,54.05z
				"/>
			<path class="st0" d="M95.3,53.04c0.01-0.06,0.01-0.16,0.02-0.28c0.01-0.12-0.01-0.24-0.06-0.37c-0.04-0.12-0.13-0.23-0.24-0.32
				c-0.11-0.09-0.29-0.13-0.53-0.13c-0.34,0-0.62,0.08-0.84,0.25s-0.39,0.36-0.53,0.58c-0.13,0.22-0.23,0.44-0.29,0.66
				c-0.06,0.22-0.1,0.38-0.12,0.47c-0.06,0.27-0.1,0.53-0.11,0.78c-0.01,0.25,0.01,0.47,0.06,0.66c0.06,0.19,0.15,0.35,0.3,0.46
				s0.35,0.17,0.61,0.17c0.21,0,0.39-0.03,0.55-0.1c0.16-0.07,0.29-0.16,0.4-0.27c0.11-0.11,0.2-0.23,0.27-0.37
				c0.07-0.13,0.12-0.27,0.15-0.39h0.99c-0.06,0.26-0.17,0.5-0.32,0.73c-0.15,0.23-0.33,0.42-0.55,0.59
				c-0.22,0.17-0.47,0.31-0.75,0.41c-0.28,0.1-0.58,0.15-0.9,0.15c-0.09,0-0.2-0.01-0.34-0.02c-0.14-0.01-0.28-0.04-0.42-0.09
				c-0.15-0.05-0.29-0.11-0.44-0.2c-0.15-0.09-0.27-0.21-0.37-0.37c-0.06-0.09-0.11-0.19-0.16-0.31c-0.05-0.12-0.09-0.26-0.12-0.42
				c-0.02-0.16-0.03-0.34-0.02-0.55c0.01-0.21,0.04-0.45,0.1-0.72c0.11-0.54,0.28-0.99,0.51-1.36c0.23-0.36,0.48-0.65,0.76-0.87
				c0.28-0.21,0.56-0.37,0.86-0.46c0.3-0.09,0.57-0.14,0.84-0.14c0.08,0,0.19,0.01,0.33,0.02s0.27,0.04,0.41,0.09
				c0.14,0.05,0.27,0.11,0.41,0.19c0.13,0.08,0.24,0.2,0.32,0.34c0.15,0.22,0.22,0.44,0.22,0.64s-0.01,0.38-0.03,0.53H95.3z"/>
			<path class="st0" d="M97.91,51.37h0.98l-1.12,5.23h-0.98L97.91,51.37z M98.28,49.09h1.18l-0.23,1.07h-1.18L98.28,49.09z"/>
			<path class="st0" d="M99.83,54.04c0.07-0.32,0.18-0.65,0.33-0.98c0.15-0.33,0.36-0.64,0.62-0.91c0.26-0.27,0.58-0.49,0.96-0.67
				c0.38-0.17,0.82-0.26,1.33-0.26c0.52,0,0.93,0.09,1.23,0.28c0.3,0.18,0.51,0.41,0.64,0.69c0.13,0.27,0.2,0.57,0.2,0.89
				c0,0.32-0.02,0.61-0.08,0.89c-0.08,0.38-0.22,0.74-0.4,1.08c-0.18,0.34-0.41,0.64-0.68,0.89c-0.27,0.25-0.59,0.46-0.96,0.6
				c-0.37,0.15-0.77,0.23-1.22,0.23c-0.43,0-0.79-0.07-1.08-0.21c-0.29-0.14-0.52-0.34-0.68-0.58c-0.16-0.24-0.26-0.53-0.3-0.87
				C99.72,54.78,99.75,54.43,99.83,54.04z M100.86,53.98c-0.06,0.27-0.08,0.53-0.07,0.78c0.01,0.25,0.05,0.47,0.14,0.66
				c0.09,0.19,0.22,0.34,0.39,0.46c0.17,0.11,0.4,0.17,0.68,0.17c0.19,0,0.38-0.04,0.59-0.11s0.4-0.19,0.58-0.35
				c0.18-0.16,0.35-0.38,0.51-0.65c0.15-0.27,0.27-0.6,0.35-1c0.14-0.65,0.11-1.15-0.1-1.48s-0.54-0.51-1-0.51
				c-0.16,0-0.34,0.03-0.54,0.09c-0.2,0.06-0.4,0.16-0.6,0.31c-0.2,0.15-0.38,0.36-0.55,0.62
				C101.08,53.24,100.95,53.57,100.86,53.98z"/>
			<path class="st0" d="M107.05,51.97l0.12-0.6h0.98l-0.18,0.84c0.04-0.05,0.11-0.13,0.2-0.24s0.21-0.21,0.36-0.31
				c0.15-0.1,0.33-0.2,0.55-0.28c0.22-0.08,0.48-0.12,0.78-0.12c0.12,0,0.28,0.02,0.48,0.05s0.4,0.11,0.58,0.23
				c0.18,0.12,0.32,0.3,0.43,0.54c0.1,0.24,0.11,0.56,0.02,0.96l-0.75,3.55h-1l0.71-3.32c0.04-0.17,0.05-0.34,0.05-0.49
				c-0.01-0.15-0.05-0.29-0.14-0.41c-0.1-0.12-0.22-0.21-0.38-0.26c-0.15-0.06-0.31-0.09-0.48-0.09c-0.18,0-0.36,0.03-0.54,0.09
				s-0.34,0.16-0.49,0.29c-0.15,0.13-0.29,0.3-0.4,0.49c-0.11,0.19-0.2,0.42-0.26,0.69l-0.64,3.01h-0.98L107.05,51.97z"/>
			<path class="st0" d="M115.6,56.6c-0.01-0.13,0-0.26,0.01-0.39c0.01-0.12,0.03-0.26,0.06-0.4c-0.17,0.21-0.33,0.39-0.5,0.51
				c-0.17,0.13-0.33,0.22-0.49,0.29c-0.16,0.06-0.31,0.11-0.45,0.12c-0.14,0.02-0.26,0.03-0.37,0.03c-0.3,0-0.56-0.04-0.77-0.12
				c-0.22-0.08-0.39-0.19-0.51-0.33c-0.12-0.14-0.21-0.3-0.25-0.49c-0.04-0.19-0.04-0.39,0.01-0.6c0.02-0.1,0.06-0.22,0.11-0.35
				c0.05-0.13,0.13-0.27,0.22-0.4c0.1-0.14,0.22-0.27,0.36-0.41c0.15-0.13,0.33-0.26,0.54-0.37c0.16-0.08,0.33-0.14,0.5-0.18
				c0.17-0.04,0.35-0.08,0.52-0.1c0.17-0.02,0.33-0.04,0.48-0.05c0.15-0.01,0.28-0.01,0.38-0.01c0.13,0,0.24,0,0.33,0.01
				c0.1,0,0.22,0.01,0.37,0.03c0.04-0.16,0.06-0.3,0.08-0.42c0.02-0.12,0.03-0.23,0.04-0.31c0.01-0.09,0.01-0.16,0-0.23
				c-0.01-0.07-0.03-0.13-0.07-0.19c-0.07-0.13-0.19-0.22-0.37-0.27c-0.17-0.05-0.33-0.07-0.47-0.07c-0.25,0-0.45,0.04-0.61,0.11
				c-0.15,0.07-0.27,0.16-0.36,0.26c-0.09,0.1-0.16,0.2-0.19,0.3c-0.04,0.1-0.06,0.18-0.08,0.23h-0.98c0.04-0.14,0.1-0.29,0.18-0.46
				c0.08-0.17,0.21-0.35,0.4-0.53c0.12-0.11,0.26-0.2,0.42-0.28c0.15-0.07,0.31-0.13,0.47-0.17c0.16-0.04,0.32-0.07,0.48-0.09
				c0.16-0.02,0.31-0.03,0.45-0.03c0.19,0,0.37,0.02,0.56,0.05c0.18,0.03,0.35,0.08,0.51,0.14c0.15,0.06,0.28,0.14,0.4,0.24
				c0.11,0.1,0.19,0.21,0.23,0.34c0.05,0.16,0.07,0.3,0.06,0.43c-0.01,0.13-0.03,0.25-0.05,0.37l-0.57,2.5
				c-0.01,0.02-0.02,0.08-0.03,0.17c-0.01,0.09-0.03,0.2-0.06,0.32c-0.02,0.12-0.05,0.26-0.07,0.41c-0.02,0.15-0.03,0.28-0.04,0.42
				H115.6z M116.03,54.05c-0.09-0.01-0.18-0.02-0.26-0.03c-0.08,0-0.18-0.01-0.3-0.01c-0.1,0-0.25,0.01-0.46,0.02
				c-0.21,0.01-0.43,0.05-0.66,0.11c-0.23,0.07-0.43,0.17-0.62,0.32c-0.19,0.15-0.31,0.35-0.37,0.61c-0.02,0.08-0.03,0.18-0.02,0.28
				c0.01,0.1,0.05,0.2,0.1,0.3c0.06,0.09,0.15,0.17,0.28,0.23c0.13,0.06,0.3,0.09,0.52,0.09c0.5,0,0.91-0.19,1.24-0.56
				c0.08-0.09,0.14-0.18,0.19-0.26c0.05-0.08,0.09-0.18,0.13-0.28c0.03-0.1,0.07-0.22,0.1-0.36
				C115.94,54.39,115.98,54.23,116.03,54.05z"/>
			<path class="st0" d="M119.82,49.08h0.98l-1.59,7.51h-0.98L119.82,49.08z"/>
			<path class="st0" d="M129.22,49.08h0.98l-1.42,6.68c-0.01,0.03-0.02,0.08-0.03,0.14c-0.01,0.07-0.02,0.14-0.04,0.22
				c-0.02,0.08-0.03,0.16-0.04,0.24c-0.01,0.08-0.02,0.16-0.03,0.23h-0.98l0.16-0.83c-0.06,0.08-0.13,0.16-0.21,0.26
				c-0.09,0.1-0.21,0.19-0.37,0.29c-0.25,0.15-0.5,0.25-0.74,0.3c-0.24,0.05-0.46,0.08-0.63,0.08c-0.17,0-0.38-0.03-0.63-0.09
				c-0.24-0.06-0.46-0.19-0.66-0.37c-0.2-0.19-0.34-0.46-0.44-0.8c-0.1-0.35-0.08-0.81,0.04-1.39c0.1-0.5,0.26-0.93,0.47-1.29
				c0.21-0.36,0.45-0.65,0.72-0.89c0.27-0.23,0.56-0.4,0.87-0.52c0.31-0.11,0.61-0.17,0.92-0.17c0.28,0,0.51,0.04,0.69,0.11
				c0.18,0.07,0.32,0.16,0.43,0.25c0.1,0.1,0.18,0.19,0.22,0.29c0.04,0.1,0.08,0.17,0.1,0.23L129.22,49.08z M128.23,53.91
				c0.08-0.38,0.11-0.69,0.08-0.91c-0.03-0.23-0.09-0.41-0.16-0.55c-0.08-0.14-0.2-0.26-0.37-0.37c-0.17-0.11-0.39-0.16-0.67-0.16
				c-0.24,0-0.46,0.04-0.64,0.13c-0.18,0.09-0.34,0.2-0.47,0.33c-0.13,0.13-0.25,0.28-0.34,0.45c-0.09,0.16-0.17,0.32-0.24,0.48
				c-0.06,0.16-0.11,0.3-0.14,0.43s-0.05,0.22-0.06,0.28c-0.05,0.23-0.08,0.46-0.09,0.7c-0.02,0.24,0.01,0.45,0.07,0.64
				c0.06,0.19,0.18,0.35,0.34,0.47c0.16,0.12,0.39,0.18,0.69,0.18c0.38,0,0.7-0.09,0.95-0.27c0.25-0.18,0.45-0.39,0.59-0.63
				c0.15-0.24,0.25-0.47,0.32-0.7S128.21,54.01,128.23,53.91z"/>
			<path class="st0" d="M133.55,56.6c-0.01-0.13,0-0.26,0.01-0.39c0.01-0.12,0.04-0.26,0.06-0.4c-0.17,0.21-0.33,0.39-0.5,0.51
				c-0.17,0.13-0.33,0.22-0.49,0.29c-0.16,0.06-0.31,0.11-0.45,0.12c-0.14,0.02-0.26,0.03-0.38,0.03c-0.3,0-0.56-0.04-0.77-0.12
				c-0.22-0.08-0.39-0.19-0.51-0.33c-0.12-0.14-0.21-0.3-0.25-0.49c-0.04-0.19-0.04-0.39,0.01-0.6c0.02-0.1,0.06-0.22,0.11-0.35
				c0.05-0.13,0.13-0.27,0.22-0.4c0.1-0.14,0.22-0.27,0.37-0.41c0.15-0.13,0.33-0.26,0.54-0.37c0.16-0.08,0.33-0.14,0.5-0.18
				c0.17-0.04,0.35-0.08,0.52-0.1c0.17-0.02,0.33-0.04,0.48-0.05c0.15-0.01,0.28-0.01,0.38-0.01c0.12,0,0.24,0,0.33,0.01
				c0.1,0,0.22,0.01,0.37,0.03c0.04-0.16,0.06-0.3,0.08-0.42c0.02-0.12,0.04-0.23,0.04-0.31c0.01-0.09,0.01-0.16,0-0.23
				c-0.01-0.07-0.03-0.13-0.07-0.19c-0.07-0.13-0.19-0.22-0.37-0.27c-0.17-0.05-0.33-0.07-0.47-0.07c-0.25,0-0.45,0.04-0.6,0.11
				c-0.15,0.07-0.27,0.16-0.37,0.26c-0.09,0.1-0.15,0.2-0.19,0.3c-0.04,0.1-0.06,0.18-0.08,0.23h-0.98c0.04-0.14,0.1-0.29,0.18-0.46
				c0.08-0.17,0.21-0.35,0.4-0.53c0.12-0.11,0.26-0.2,0.42-0.28c0.15-0.07,0.31-0.13,0.47-0.17c0.16-0.04,0.32-0.07,0.48-0.09
				c0.16-0.02,0.31-0.03,0.45-0.03c0.19,0,0.37,0.02,0.56,0.05c0.18,0.03,0.35,0.08,0.51,0.14c0.15,0.06,0.28,0.14,0.4,0.24
				c0.11,0.1,0.19,0.21,0.23,0.34c0.05,0.16,0.07,0.3,0.06,0.43c-0.01,0.13-0.03,0.25-0.05,0.37l-0.57,2.5
				c-0.01,0.02-0.02,0.08-0.03,0.17c-0.02,0.09-0.03,0.2-0.06,0.32c-0.02,0.12-0.05,0.26-0.07,0.41c-0.02,0.15-0.03,0.28-0.04,0.42
				H133.55z M133.98,54.05c-0.09-0.01-0.18-0.02-0.25-0.03c-0.08,0-0.18-0.01-0.3-0.01c-0.1,0-0.25,0.01-0.46,0.02
				c-0.21,0.01-0.43,0.05-0.66,0.11c-0.23,0.07-0.43,0.17-0.62,0.32c-0.19,0.15-0.32,0.35-0.37,0.61c-0.02,0.08-0.03,0.18-0.02,0.28
				c0.01,0.1,0.05,0.2,0.1,0.3c0.06,0.09,0.15,0.17,0.28,0.23c0.12,0.06,0.3,0.09,0.52,0.09c0.5,0,0.91-0.19,1.24-0.56
				c0.08-0.09,0.14-0.18,0.19-0.26c0.05-0.08,0.09-0.18,0.12-0.28c0.03-0.1,0.07-0.22,0.1-0.36
				C133.89,54.39,133.93,54.23,133.98,54.05z"/>
			<path class="st0" d="M140.65,49.07h1.04l-1.59,7.52h-1.04L140.65,49.07z"/>
			<path class="st0" d="M142.96,51.97l0.12-0.6h0.98l-0.18,0.84c0.04-0.05,0.11-0.13,0.2-0.24s0.21-0.21,0.36-0.31
				s0.33-0.2,0.55-0.28c0.22-0.08,0.48-0.12,0.78-0.12c0.12,0,0.28,0.02,0.48,0.05c0.21,0.03,0.4,0.11,0.58,0.23
				c0.18,0.12,0.32,0.3,0.43,0.54c0.1,0.24,0.11,0.56,0.02,0.96l-0.75,3.55h-1l0.71-3.32c0.04-0.17,0.05-0.34,0.05-0.49
				s-0.05-0.29-0.14-0.41c-0.1-0.12-0.22-0.21-0.37-0.26c-0.15-0.06-0.31-0.09-0.48-0.09c-0.18,0-0.36,0.03-0.54,0.09
				c-0.18,0.06-0.34,0.16-0.49,0.29c-0.15,0.13-0.29,0.3-0.4,0.49c-0.11,0.19-0.2,0.42-0.27,0.69l-0.63,3.01h-0.98L142.96,51.97z"/>
			<path class="st0" d="M153.54,49.08h0.98l-1.42,6.68c-0.01,0.03-0.02,0.08-0.03,0.14c-0.01,0.07-0.02,0.14-0.04,0.22
				c-0.02,0.08-0.03,0.16-0.04,0.24c-0.01,0.08-0.02,0.16-0.03,0.23h-0.98l0.16-0.83c-0.06,0.08-0.13,0.16-0.21,0.26
				c-0.09,0.1-0.21,0.19-0.37,0.29c-0.25,0.15-0.5,0.25-0.74,0.3c-0.24,0.05-0.46,0.08-0.63,0.08c-0.17,0-0.38-0.03-0.63-0.09
				c-0.24-0.06-0.46-0.19-0.66-0.37c-0.2-0.19-0.34-0.46-0.44-0.8c-0.1-0.35-0.08-0.81,0.04-1.39c0.1-0.5,0.26-0.93,0.47-1.29
				c0.21-0.36,0.45-0.65,0.72-0.89c0.27-0.23,0.56-0.4,0.87-0.52c0.31-0.11,0.61-0.17,0.92-0.17c0.28,0,0.51,0.04,0.69,0.11
				c0.18,0.07,0.32,0.16,0.43,0.25c0.1,0.1,0.18,0.19,0.22,0.29c0.04,0.1,0.08,0.17,0.1,0.23L153.54,49.08z M152.55,53.91
				c0.08-0.38,0.11-0.69,0.08-0.91c-0.03-0.23-0.09-0.41-0.16-0.55c-0.08-0.14-0.2-0.26-0.37-0.37c-0.17-0.11-0.39-0.16-0.67-0.16
				c-0.24,0-0.46,0.04-0.64,0.13c-0.18,0.09-0.34,0.2-0.47,0.33c-0.13,0.13-0.25,0.28-0.34,0.45c-0.09,0.16-0.17,0.32-0.24,0.48
				c-0.06,0.16-0.11,0.3-0.14,0.43c-0.03,0.13-0.05,0.22-0.06,0.28c-0.05,0.23-0.08,0.46-0.09,0.7c-0.02,0.24,0.01,0.45,0.07,0.64
				c0.06,0.19,0.18,0.35,0.34,0.47c0.16,0.12,0.39,0.18,0.69,0.18c0.38,0,0.7-0.09,0.95-0.27c0.25-0.18,0.45-0.39,0.59-0.63
				c0.15-0.24,0.25-0.47,0.32-0.7S152.53,54.01,152.55,53.91z"/>
			<path class="st0" d="M156.7,51.37l-0.72,3.37c-0.03,0.12-0.04,0.26-0.05,0.4c-0.01,0.14,0.02,0.26,0.07,0.38
				c0.05,0.11,0.15,0.2,0.27,0.28c0.13,0.07,0.32,0.11,0.57,0.11c0.24,0,0.48-0.04,0.72-0.13c0.24-0.09,0.45-0.24,0.63-0.45
				c0.15-0.16,0.25-0.33,0.3-0.51s0.1-0.34,0.12-0.47l0.64-2.96h1.01l-0.91,4.25c-0.01,0.03-0.02,0.08-0.03,0.16
				s-0.03,0.16-0.04,0.26c-0.01,0.1-0.03,0.2-0.05,0.3c-0.02,0.1-0.04,0.19-0.05,0.26h-1.02l0.17-0.9c-0.06,0.09-0.14,0.19-0.24,0.3
				c-0.1,0.11-0.22,0.21-0.36,0.31c-0.15,0.09-0.32,0.17-0.53,0.24c-0.21,0.07-0.45,0.1-0.73,0.1c-0.33,0-0.6-0.04-0.82-0.13
				c-0.22-0.09-0.39-0.21-0.51-0.37c-0.12-0.16-0.2-0.34-0.23-0.56c-0.03-0.22-0.02-0.46,0.04-0.71l0.75-3.51H156.7z M159.92,48.89
				l-1.57,1.5h-0.68l1.17-1.5H159.92z"/>
			<path class="st0" d="M161.95,55.05c-0.02,0.1-0.03,0.2-0.03,0.31c0,0.11,0.04,0.21,0.1,0.31c0.06,0.09,0.17,0.17,0.3,0.23
				c0.14,0.06,0.32,0.09,0.56,0.09c0.2,0,0.38-0.02,0.55-0.07c0.16-0.05,0.31-0.13,0.44-0.27c0.15-0.15,0.24-0.31,0.27-0.49
				c0.03-0.12,0.03-0.23,0-0.31c-0.03-0.08-0.08-0.15-0.17-0.2s-0.19-0.1-0.33-0.14c-0.14-0.04-0.3-0.08-0.48-0.12
				c-0.26-0.06-0.5-0.13-0.74-0.2c-0.23-0.07-0.43-0.16-0.58-0.27c-0.16-0.11-0.27-0.25-0.34-0.43c-0.07-0.17-0.08-0.4-0.02-0.67
				c0.05-0.24,0.14-0.45,0.29-0.65c0.14-0.2,0.32-0.37,0.53-0.5c0.21-0.14,0.45-0.24,0.71-0.32s0.55-0.11,0.85-0.11
				c0.17,0,0.34,0.01,0.53,0.04c0.18,0.03,0.36,0.07,0.52,0.14c0.16,0.06,0.3,0.15,0.42,0.25c0.12,0.1,0.21,0.23,0.25,0.39
				c0.04,0.15,0.05,0.28,0.03,0.41s-0.03,0.24-0.06,0.35h-1c0.05-0.19,0.05-0.35,0.01-0.46c-0.05-0.11-0.11-0.2-0.21-0.26
				c-0.09-0.06-0.2-0.1-0.31-0.11s-0.22-0.02-0.31-0.02c-0.03,0-0.11,0-0.23,0.01c-0.12,0.01-0.24,0.03-0.38,0.08
				c-0.14,0.05-0.26,0.12-0.38,0.22s-0.2,0.24-0.24,0.43c-0.02,0.12-0.02,0.22,0.02,0.3c0.03,0.08,0.09,0.15,0.15,0.19
				c0.06,0.05,0.14,0.09,0.21,0.11s0.15,0.05,0.22,0.07c0.34,0.08,0.62,0.16,0.84,0.21c0.22,0.06,0.4,0.11,0.54,0.17
				s0.24,0.1,0.32,0.16c0.08,0.05,0.15,0.11,0.21,0.18c0.12,0.14,0.19,0.29,0.21,0.46s0.01,0.34-0.02,0.51
				c-0.06,0.29-0.19,0.56-0.38,0.79c-0.19,0.24-0.39,0.41-0.61,0.53c-0.26,0.14-0.53,0.23-0.8,0.28c-0.28,0.05-0.55,0.07-0.82,0.07
				c-0.26,0-0.51-0.03-0.75-0.09c-0.23-0.06-0.43-0.15-0.6-0.29c-0.16-0.13-0.28-0.31-0.34-0.53c-0.07-0.22-0.06-0.48,0.01-0.8
				H161.95z"/>
			<path class="st0" d="M166.58,51.34h0.93l0.23-1.09l1.04-0.31l-0.3,1.41h1.17l-0.16,0.72h-1.17l-0.67,3.14
				c-0.01,0.06-0.02,0.13-0.03,0.22c-0.01,0.08-0.01,0.16,0.03,0.23c0.03,0.07,0.09,0.13,0.17,0.18c0.08,0.05,0.21,0.07,0.38,0.07
				c0.1,0,0.19-0.01,0.28-0.02c0.09-0.01,0.16-0.02,0.2-0.04l-0.16,0.76c-0.1,0.01-0.21,0.03-0.35,0.04
				c-0.13,0.01-0.29,0.02-0.47,0.02c-0.45,0-0.77-0.08-0.95-0.24c-0.18-0.16-0.23-0.45-0.14-0.88l0.74-3.49h-0.93L166.58,51.34z"/>
			<path class="st0" d="M170.67,52.43c0.04-0.18,0.08-0.36,0.1-0.54c0.02-0.18,0.05-0.35,0.08-0.53h0.99l-0.2,1.01
				c0.09-0.18,0.19-0.33,0.31-0.46c0.12-0.12,0.24-0.23,0.38-0.31c0.14-0.08,0.27-0.14,0.41-0.18c0.14-0.04,0.26-0.07,0.37-0.08
				c0.15-0.02,0.28-0.03,0.4-0.03c0.11,0,0.21,0,0.29,0.01l-0.21,0.96c-0.04-0.01-0.1-0.03-0.18-0.04
				c-0.03-0.01-0.08-0.01-0.12-0.01s-0.1,0-0.16,0c-0.29,0-0.54,0.04-0.74,0.12c-0.2,0.08-0.37,0.19-0.51,0.33
				c-0.13,0.14-0.24,0.31-0.32,0.51c-0.08,0.19-0.14,0.4-0.19,0.63l-0.59,2.78h-0.99L170.67,52.43z"/>
			<path class="st0" d="M174.91,51.37h0.98l-1.11,5.23h-0.98L174.91,51.37z M175.29,49.09h1.18l-0.23,1.07h-1.18L175.29,49.09z"/>
			<path class="st0" d="M179.88,56.6c-0.01-0.13,0-0.26,0.01-0.39c0.01-0.12,0.03-0.26,0.06-0.4c-0.17,0.21-0.33,0.39-0.5,0.51
				c-0.17,0.13-0.33,0.22-0.49,0.29c-0.16,0.06-0.31,0.11-0.45,0.12c-0.14,0.02-0.26,0.03-0.37,0.03c-0.3,0-0.56-0.04-0.77-0.12
				c-0.22-0.08-0.39-0.19-0.51-0.33c-0.12-0.14-0.21-0.3-0.25-0.49c-0.04-0.19-0.04-0.39,0.01-0.6c0.02-0.1,0.06-0.22,0.11-0.35
				c0.05-0.13,0.13-0.27,0.22-0.4c0.1-0.14,0.22-0.27,0.36-0.41c0.15-0.13,0.33-0.26,0.54-0.37c0.16-0.08,0.33-0.14,0.5-0.18
				c0.17-0.04,0.35-0.08,0.52-0.1c0.17-0.02,0.33-0.04,0.48-0.05c0.15-0.01,0.28-0.01,0.38-0.01c0.13,0,0.24,0,0.33,0.01
				c0.1,0,0.22,0.01,0.37,0.03c0.04-0.16,0.06-0.3,0.08-0.42c0.02-0.12,0.03-0.23,0.04-0.31c0.01-0.09,0.01-0.16,0-0.23
				c-0.01-0.07-0.03-0.13-0.07-0.19c-0.07-0.13-0.19-0.22-0.37-0.27c-0.17-0.05-0.33-0.07-0.47-0.07c-0.25,0-0.45,0.04-0.61,0.11
				c-0.15,0.07-0.27,0.16-0.36,0.26c-0.09,0.1-0.16,0.2-0.19,0.3c-0.04,0.1-0.06,0.18-0.08,0.23h-0.98c0.04-0.14,0.1-0.29,0.18-0.46
				c0.08-0.17,0.21-0.35,0.4-0.53c0.12-0.11,0.26-0.2,0.42-0.28c0.15-0.07,0.31-0.13,0.47-0.17c0.16-0.04,0.32-0.07,0.48-0.09
				c0.16-0.02,0.31-0.03,0.45-0.03c0.19,0,0.37,0.02,0.56,0.05c0.18,0.03,0.35,0.08,0.51,0.14c0.15,0.06,0.28,0.14,0.4,0.24
				c0.11,0.1,0.19,0.21,0.23,0.34c0.05,0.16,0.07,0.3,0.06,0.43c-0.01,0.13-0.03,0.25-0.05,0.37l-0.57,2.5
				c-0.01,0.02-0.02,0.08-0.03,0.17s-0.03,0.2-0.06,0.32c-0.02,0.12-0.05,0.26-0.07,0.41c-0.02,0.15-0.03,0.28-0.04,0.42H179.88z
				 M180.3,54.05c-0.09-0.01-0.18-0.02-0.26-0.03c-0.08,0-0.18-0.01-0.3-0.01c-0.1,0-0.25,0.01-0.46,0.02
				c-0.21,0.01-0.43,0.05-0.66,0.11c-0.23,0.07-0.43,0.17-0.62,0.32c-0.19,0.15-0.31,0.35-0.37,0.61c-0.02,0.08-0.03,0.18-0.02,0.28
				c0.01,0.1,0.05,0.2,0.1,0.3c0.06,0.09,0.15,0.17,0.28,0.23c0.13,0.06,0.3,0.09,0.52,0.09c0.5,0,0.91-0.19,1.24-0.56
				c0.08-0.09,0.14-0.18,0.19-0.26c0.05-0.08,0.09-0.18,0.13-0.28c0.03-0.1,0.07-0.22,0.1-0.36
				C180.21,54.39,180.25,54.23,180.3,54.05z"/>
		</g>
	</g>
	<g>
		<path class="st0" d="M24.06,67.29c0.45,0.01,0.84,0.06,1.16,0.15c0.32,0.09,0.58,0.22,0.78,0.4c0.19,0.17,0.34,0.39,0.44,0.65
			c0.1,0.26,0.15,0.56,0.15,0.9c0,0.35-0.05,0.66-0.15,0.91c-0.1,0.25-0.24,0.46-0.44,0.62c-0.19,0.15-0.39,0.28-0.61,0.37
			c-0.22,0.1-0.44,0.16-0.67,0.2c-0.05,0.01-0.1,0.01-0.15,0.02c-0.05,0.01-0.1,0.01-0.15,0.01c-0.05,0.01-0.1,0.01-0.15,0.01
			c-0.05,0-0.1,0-0.15,0l-1.43-0.02v2.37h-1.87v-6.6H24.06z M22.7,70.22h0.86c0.18,0.01,0.33,0,0.46-0.04
			c0.13-0.04,0.25-0.1,0.34-0.18c0.09-0.09,0.16-0.18,0.2-0.28c0.05-0.1,0.07-0.21,0.07-0.34c0-0.14-0.03-0.26-0.09-0.37
			c-0.06-0.1-0.14-0.19-0.26-0.25c-0.12-0.06-0.25-0.11-0.39-0.14c-0.15-0.03-0.31-0.05-0.48-0.05l-0.71-0.02V70.22z"/>
		<path class="st0" d="M32.38,67.29v1.36h-3.15v1.29h2.95v1.37h-2.95v1.29h3.15v1.29h-5.02v-6.6H32.38z"/>
		<path class="st0" d="M35.33,67.29v5.23h2.95v1.37h-4.81v-6.6H35.33z"/>
		<path class="st0" d="M39.05,69.39c0.12-0.4,0.29-0.78,0.51-1.15c0.22-0.36,0.56-0.63,1.03-0.81c0.47-0.18,1.06-0.27,1.78-0.27
			c0.01,0,0.02,0,0.03,0c0.01,0,0.02,0,0.03,0c0.01,0,0.01,0,0.02,0c0.01,0,0.02,0,0.02,0c0.01,0,0.02,0,0.03,0
			c0.01,0,0.01,0,0.03,0c0.01,0,0.01,0,0.02,0c0.01,0,0.02,0,0.02,0c0.39,0.02,0.78,0.09,1.14,0.21c0.37,0.12,0.71,0.3,1.04,0.53
			c0.33,0.23,0.58,0.57,0.74,1.03s0.25,1.01,0.25,1.68c0,0.09,0,0.18,0,0.27c0,0.09-0.01,0.19-0.02,0.28
			c-0.01,0.05-0.01,0.1-0.02,0.15c-0.01,0.05-0.01,0.1-0.02,0.15c-0.01,0.05-0.02,0.11-0.03,0.16c-0.01,0.05-0.02,0.1-0.03,0.15
			c-0.07,0.29-0.19,0.57-0.34,0.83c-0.16,0.26-0.35,0.51-0.58,0.75c-0.23,0.24-0.53,0.41-0.91,0.53c-0.37,0.12-0.82,0.17-1.35,0.17
			c-0.69,0-1.27-0.08-1.73-0.24c-0.46-0.16-0.81-0.4-1.05-0.73c-0.24-0.33-0.42-0.67-0.56-1.03c-0.13-0.36-0.22-0.74-0.25-1.14
			c0-0.01,0-0.01,0-0.02s0-0.02,0-0.03c-0.01-0.01-0.01-0.01-0.01-0.02c0-0.01,0-0.02,0-0.02c0-0.02,0-0.04,0-0.05
			c0-0.02,0-0.04,0-0.05v-0.02C38.86,70.22,38.93,69.8,39.05,69.39z M40.88,71.38c0.06,0.25,0.16,0.48,0.29,0.71
			c0.13,0.23,0.29,0.39,0.49,0.51c0.2,0.11,0.43,0.17,0.7,0.17c0.23,0,0.44-0.04,0.62-0.13c0.18-0.09,0.33-0.22,0.45-0.41
			c0.12-0.18,0.21-0.4,0.28-0.67c0.06-0.27,0.1-0.59,0.1-0.94c0-0.28-0.03-0.55-0.09-0.81c-0.06-0.25-0.15-0.48-0.27-0.7
			c-0.12-0.21-0.27-0.37-0.46-0.48c-0.19-0.11-0.43-0.16-0.69-0.16c-0.27,0-0.5,0.06-0.68,0.17c-0.19,0.11-0.34,0.28-0.45,0.51
			c-0.11,0.23-0.19,0.46-0.26,0.71c-0.06,0.25-0.1,0.5-0.12,0.77v-0.02C40.78,70.87,40.81,71.13,40.88,71.38z"/>
		<path class="st0" d="M54.36,67.29v1.36h-2.8v1.51h2.58v1.29h-2.58v2.44h-1.87v-6.6H54.36z"/>
		<path class="st0" d="M57.23,67.29v3.88c0,0.24,0.02,0.46,0.07,0.65c0.05,0.19,0.12,0.36,0.22,0.51c0.1,0.15,0.24,0.26,0.4,0.33
			c0.16,0.07,0.36,0.11,0.59,0.11c0.27,0,0.49-0.04,0.67-0.11c0.18-0.07,0.32-0.19,0.41-0.34c0.09-0.15,0.16-0.33,0.21-0.53
			c0.05-0.2,0.07-0.42,0.07-0.67v-3.82h1.87v4.08c0,0.41-0.06,0.78-0.19,1.1c-0.13,0.33-0.32,0.62-0.56,0.88
			c-0.26,0.26-0.59,0.45-1,0.57s-0.9,0.19-1.48,0.19c-0.48,0-0.91-0.06-1.3-0.18c-0.39-0.12-0.72-0.31-1.01-0.56
			c-0.28-0.26-0.49-0.54-0.63-0.86c-0.14-0.32-0.21-0.66-0.21-1.04v-4.18H57.23z"/>
		<path class="st0" d="M68.35,67.29v1.36h-2.08v5.24h-1.8v-5.24H62.4v-1.36H68.35z"/>
		<path class="st0" d="M70.94,67.29v3.88c0,0.24,0.02,0.46,0.07,0.65c0.05,0.19,0.12,0.36,0.22,0.51c0.1,0.15,0.24,0.26,0.4,0.33
			c0.16,0.07,0.36,0.11,0.59,0.11c0.27,0,0.49-0.04,0.67-0.11c0.18-0.07,0.32-0.19,0.41-0.34c0.09-0.15,0.16-0.33,0.21-0.53
			c0.05-0.2,0.07-0.42,0.07-0.67v-3.82h1.87v4.08c0,0.41-0.06,0.78-0.19,1.1c-0.13,0.33-0.32,0.62-0.56,0.88
			c-0.26,0.26-0.59,0.45-1,0.57c-0.41,0.12-0.9,0.19-1.48,0.19c-0.48,0-0.91-0.06-1.3-0.18c-0.39-0.12-0.72-0.31-1.01-0.56
			c-0.28-0.26-0.49-0.54-0.63-0.86c-0.14-0.32-0.21-0.66-0.21-1.04v-4.18H70.94z"/>
		<path class="st0" d="M79.49,67.29c0.01,0.01,0.03,0.02,0.04,0.02c0.01,0,0.03,0,0.04,0s0.03,0,0.04,0c0.01,0,0.03,0,0.05,0
			c0.31,0.01,0.61,0.04,0.89,0.1c0.28,0.06,0.55,0.15,0.82,0.26c0.26,0.12,0.45,0.29,0.58,0.52c0.13,0.23,0.2,0.51,0.2,0.85
			c0,0.27-0.04,0.5-0.11,0.7c-0.08,0.2-0.19,0.36-0.35,0.48c-0.15,0.12-0.32,0.22-0.51,0.3c-0.19,0.08-0.39,0.14-0.6,0.17
			c0.32,0.01,0.58,0.07,0.78,0.18c0.2,0.11,0.34,0.27,0.42,0.47c0.08,0.21,0.14,0.42,0.2,0.65c0.05,0.22,0.09,0.46,0.11,0.7
			c0,0.01,0,0.01,0,0.02s0,0.01,0,0.02c0,0.01,0,0.01,0,0.02c0,0.01,0,0.01,0.01,0.02c0.01,0.1,0.02,0.2,0.03,0.3
			s0.02,0.2,0.03,0.31c0.01,0.1,0.03,0.19,0.05,0.28c0.02,0.09,0.05,0.17,0.08,0.25h-2.01c-0.02-0.05-0.04-0.11-0.06-0.17
			c-0.02-0.07-0.03-0.14-0.04-0.22c-0.01-0.08-0.01-0.16-0.02-0.24c-0.01-0.08-0.01-0.17-0.02-0.25c0-0.01,0-0.02,0-0.03
			s0-0.02,0-0.03c-0.01-0.01-0.01-0.01-0.01-0.02c0-0.01,0-0.02,0-0.02c0-0.02,0-0.04,0-0.05c0-0.02,0-0.04,0-0.05
			c-0.01-0.18-0.03-0.35-0.06-0.51c-0.03-0.16-0.07-0.32-0.12-0.46c-0.05-0.15-0.13-0.26-0.25-0.33c-0.12-0.07-0.26-0.11-0.44-0.11
			l-0.86-0.02v2.52h-1.87v-6.6H79.49z M78.41,70.09h0.72c0.01,0.01,0.03,0.02,0.04,0.02c0.02,0,0.03,0,0.04,0s0.03,0,0.04,0
			s0.03,0,0.05,0c0.11-0.01,0.22-0.02,0.32-0.05c0.1-0.03,0.2-0.06,0.3-0.11c0.09-0.05,0.16-0.12,0.21-0.21
			c0.05-0.09,0.07-0.21,0.07-0.35c0-0.12-0.02-0.23-0.07-0.32c-0.05-0.09-0.12-0.17-0.22-0.23c-0.1-0.05-0.21-0.1-0.33-0.13
			c-0.12-0.03-0.25-0.05-0.39-0.05l-0.78-0.02V70.09z"/>
		<path class="st0" d="M83.2,69.39c0.12-0.4,0.29-0.78,0.51-1.15c0.22-0.36,0.56-0.63,1.03-0.81c0.47-0.18,1.06-0.27,1.78-0.27
			c0.01,0,0.02,0,0.03,0c0.01,0,0.02,0,0.03,0c0.01,0,0.01,0,0.02,0c0.01,0,0.02,0,0.02,0c0.01,0,0.02,0,0.03,0
			c0.01,0,0.01,0,0.03,0c0.01,0,0.01,0,0.02,0c0.01,0,0.02,0,0.02,0c0.39,0.02,0.78,0.09,1.14,0.21c0.37,0.12,0.71,0.3,1.04,0.53
			c0.33,0.23,0.58,0.57,0.74,1.03c0.17,0.45,0.25,1.01,0.25,1.68c0,0.09,0,0.18,0,0.27c0,0.09-0.01,0.19-0.02,0.28
			c-0.01,0.05-0.01,0.1-0.02,0.15c-0.01,0.05-0.01,0.1-0.02,0.15c-0.01,0.05-0.02,0.11-0.03,0.16c-0.01,0.05-0.02,0.1-0.03,0.15
			c-0.07,0.29-0.19,0.57-0.34,0.83c-0.16,0.26-0.35,0.51-0.58,0.75c-0.23,0.24-0.53,0.41-0.91,0.53c-0.37,0.12-0.82,0.17-1.35,0.17
			c-0.69,0-1.27-0.08-1.73-0.24c-0.46-0.16-0.81-0.4-1.05-0.73c-0.24-0.33-0.42-0.67-0.56-1.03c-0.13-0.36-0.22-0.74-0.25-1.14
			c0-0.01,0-0.01,0-0.02s0-0.02,0-0.03C83,70.83,83,70.82,83,70.81c0-0.01,0-0.02,0-0.02c0-0.02,0-0.04,0-0.05c0-0.02,0-0.04,0-0.05
			v-0.02C83.02,70.22,83.09,69.8,83.2,69.39z M85.04,71.38c0.06,0.25,0.16,0.48,0.29,0.71c0.13,0.23,0.29,0.39,0.49,0.51
			c0.2,0.11,0.43,0.17,0.7,0.17c0.23,0,0.44-0.04,0.62-0.13c0.18-0.09,0.33-0.22,0.45-0.41c0.12-0.18,0.21-0.4,0.28-0.67
			c0.06-0.27,0.1-0.59,0.1-0.94c0-0.28-0.03-0.55-0.09-0.81c-0.06-0.25-0.15-0.48-0.27-0.7c-0.12-0.21-0.27-0.37-0.46-0.48
			c-0.19-0.11-0.43-0.16-0.69-0.16c-0.27,0-0.5,0.06-0.68,0.17c-0.19,0.11-0.34,0.28-0.45,0.51s-0.19,0.46-0.26,0.71
			c-0.06,0.25-0.1,0.5-0.12,0.77v-0.02C84.94,70.87,84.97,71.13,85.04,71.38z"/>
		<path class="st0" d="M96.72,67.29c0.75,0.01,1.38,0.1,1.89,0.27c0.5,0.17,0.88,0.42,1.14,0.75c0.25,0.33,0.45,0.7,0.58,1.09
			c0.13,0.39,0.2,0.8,0.21,1.24c0,0.01,0,0.02,0,0.03c0,0.01,0,0.01,0,0.02c0,0.01,0,0.01,0,0.02c0,0.01,0,0.02,0,0.03
			c0,0.01,0,0.01,0,0.02c0,0.01,0,0.01,0,0.02c-0.01,0.01-0.01,0.02-0.01,0.04c0,0.01,0,0.02,0,0.04c0,0.01,0,0.01,0,0.02
			c0,0.01,0,0.02,0,0.03c-0.02,0.52-0.11,0.98-0.28,1.36c-0.17,0.38-0.41,0.69-0.73,0.93c-0.32,0.24-0.65,0.42-0.99,0.54
			c-0.35,0.11-0.71,0.17-1.09,0.17h-3.52v-6.6H96.72z M96.72,72.59c0.3,0.01,0.57-0.03,0.79-0.11c0.22-0.09,0.41-0.22,0.56-0.41
			c0.15-0.18,0.27-0.37,0.36-0.57c0.09-0.2,0.14-0.41,0.16-0.63c0-0.01,0-0.01,0-0.02s0-0.02,0.01-0.03c0-0.01,0-0.01,0-0.02
			c0-0.01,0-0.02,0-0.02c0-0.01,0-0.02,0-0.03s0-0.02,0-0.03c0-0.01,0-0.01,0-0.02c0-0.01,0-0.02,0-0.02c0-0.01,0-0.02,0-0.04
			c0-0.01,0-0.03,0-0.05c-0.01-0.01-0.01-0.02-0.01-0.04c0-0.01,0-0.02,0-0.04c0-0.03,0-0.06-0.01-0.09c0-0.03-0.01-0.05-0.01-0.08
			c-0.04-0.21-0.1-0.42-0.2-0.61c-0.1-0.19-0.22-0.38-0.38-0.56c-0.16-0.18-0.34-0.31-0.54-0.4c-0.2-0.09-0.42-0.13-0.66-0.13
			l-1-0.02v3.95H96.72z"/>
		<path class="st0" d="M105.77,67.29l2.59,6.6h-2.08l-0.44-1.22h-2.58l-0.43,1.22h-1.94l2.65-6.6H105.77z M104.55,68.65l-0.87,2.66
			h1.65L104.55,68.65z"/>
		<path class="st0" d="M113.96,67.29v6.6h-1.87v-6.6H113.96z"/>
		<path class="st0" d="M117.69,67.29l2.23,4.88v-4.88h1.65v6.6h-2.59l-2.22-4.95v4.95h-1.65v-6.6H117.69z"/>
		<path class="st0" d="M125.6,67.29c0.75,0.01,1.38,0.1,1.89,0.27c0.51,0.17,0.89,0.42,1.14,0.75c0.26,0.33,0.45,0.7,0.58,1.09
			c0.13,0.39,0.2,0.8,0.2,1.24c0,0.01,0,0.02,0,0.03c0,0.01,0,0.01,0,0.02c0,0.01,0,0.01,0,0.02c0,0.01,0,0.02,0,0.03
			c0,0.01,0,0.01,0,0.02c0,0.01,0,0.01,0,0.02c-0.01,0.01-0.01,0.02-0.01,0.04c0,0.01,0,0.02,0,0.04c0,0.01,0,0.01,0,0.02
			c0,0.01,0,0.02,0,0.03c-0.02,0.52-0.11,0.98-0.28,1.36c-0.17,0.38-0.41,0.69-0.73,0.93c-0.32,0.24-0.65,0.42-0.99,0.54
			c-0.35,0.11-0.71,0.17-1.09,0.17h-3.52v-6.6H125.6z M125.6,72.59c0.31,0.01,0.57-0.03,0.79-0.11c0.22-0.09,0.41-0.22,0.56-0.41
			c0.15-0.18,0.27-0.37,0.35-0.57c0.09-0.2,0.14-0.41,0.16-0.63c0-0.01,0-0.01,0-0.02s0-0.02,0.01-0.03c0-0.01,0-0.01,0-0.02
			c0-0.01,0-0.02,0-0.02c0-0.01,0-0.02,0-0.03s0-0.02,0-0.03c0-0.01,0-0.01,0-0.02c0-0.01,0-0.02,0-0.02c0-0.01,0-0.02,0-0.04
			c0-0.01,0-0.03,0-0.05c-0.01-0.01-0.01-0.02-0.01-0.04c0-0.01,0-0.02,0-0.04c0-0.03,0-0.06-0.01-0.09c0-0.03-0.01-0.05-0.01-0.08
			c-0.04-0.21-0.1-0.42-0.2-0.61c-0.09-0.19-0.22-0.38-0.38-0.56c-0.16-0.18-0.34-0.31-0.54-0.4c-0.2-0.09-0.42-0.13-0.66-0.13
			l-1-0.02v3.95H125.6z"/>
		<path class="st0" d="M132.28,67.29v3.8c0,0.24,0.03,0.46,0.07,0.65c0.05,0.19,0.12,0.36,0.22,0.51c0.1,0.15,0.24,0.25,0.4,0.33
			c0.16,0.07,0.36,0.11,0.59,0.11c0.27,0,0.49-0.04,0.68-0.11c0.18-0.07,0.32-0.19,0.41-0.34c0.09-0.15,0.16-0.33,0.21-0.53
			c0.05-0.2,0.07-0.43,0.07-0.68v-3.75h1.87v4.02c0,0.41-0.06,0.77-0.19,1.1c-0.13,0.33-0.32,0.62-0.56,0.87
			c-0.26,0.26-0.59,0.45-1,0.57c-0.41,0.12-0.9,0.19-1.48,0.19c-0.48,0-0.91-0.06-1.3-0.18c-0.39-0.12-0.72-0.31-1.01-0.56
			c-0.28-0.26-0.49-0.54-0.63-0.86c-0.14-0.32-0.21-0.66-0.21-1.04v-4.1H132.28z M133.79,65.2h2.01l-1.79,1.37h-1.22L133.79,65.2z"
			/>
		<path class="st0" d="M139.6,71.74c0,0.03,0,0.06,0,0.09c0,0.03,0,0.06,0.01,0.09c0,0.01,0,0.03,0,0.04c0,0.02,0.01,0.03,0.01,0.04
			c0.01,0.02,0.01,0.03,0.01,0.05c0,0.02,0.01,0.03,0.01,0.04c0.02,0.08,0.05,0.15,0.1,0.22c0.05,0.07,0.1,0.13,0.18,0.2
			c0.07,0.06,0.17,0.11,0.28,0.14c0.11,0.03,0.25,0.05,0.4,0.05c0.16,0,0.31-0.02,0.43-0.05c0.12-0.03,0.23-0.08,0.31-0.14
			c0.09-0.07,0.15-0.14,0.2-0.21c0.04-0.07,0.07-0.15,0.08-0.23c0-0.01,0-0.01,0-0.02c0-0.01,0-0.01,0-0.02
			c-0.01,0-0.01,0-0.01-0.01c0-0.01,0-0.01,0-0.02c0-0.01,0-0.01,0-0.02c0-0.01,0-0.01,0-0.02c-0.01-0.01-0.01-0.01-0.01-0.02
			c0-0.01,0-0.01,0-0.02c-0.03-0.07-0.06-0.13-0.12-0.2c-0.05-0.07-0.12-0.13-0.21-0.19c-0.09-0.07-0.2-0.12-0.32-0.17
			s-0.27-0.08-0.42-0.11c-0.01,0-0.01,0-0.02,0c-0.01,0-0.01,0-0.02,0s-0.01,0-0.02,0c-0.01,0-0.01-0.01-0.02-0.01
			c-0.49-0.1-0.9-0.22-1.23-0.34c-0.33-0.12-0.59-0.25-0.77-0.39c-0.18-0.14-0.31-0.32-0.41-0.53c-0.1-0.21-0.16-0.46-0.17-0.74
			c0-0.01,0-0.02,0-0.03c0-0.01,0-0.02,0-0.02c0-0.01,0-0.01,0-0.01c0,0,0-0.01,0-0.01c0-0.01,0-0.01,0-0.02
			c-0.01-0.32,0.06-0.61,0.2-0.85c0.14-0.25,0.34-0.45,0.62-0.62c0.27-0.16,0.57-0.29,0.91-0.37s0.69-0.13,1.08-0.13
			c0.54,0.02,0.99,0.08,1.35,0.19c0.35,0.11,0.62,0.26,0.79,0.45c0.18,0.19,0.31,0.4,0.4,0.65c0.09,0.24,0.13,0.51,0.13,0.79
			l-1.87-0.02c0-0.1-0.02-0.19-0.05-0.27c-0.04-0.09-0.09-0.16-0.16-0.23c-0.07-0.07-0.16-0.12-0.27-0.15
			c-0.11-0.03-0.23-0.05-0.37-0.05c-0.13,0-0.24,0.02-0.34,0.05c-0.1,0.03-0.18,0.08-0.25,0.14c-0.06,0.06-0.11,0.12-0.15,0.19
			c-0.04,0.06-0.06,0.13-0.06,0.2c0,0.01,0,0.01,0,0.02c0,0.01,0,0.01,0,0.02s0,0.01,0,0.01c0,0,0,0.01,0,0.01
			c0.01,0.06,0.04,0.12,0.07,0.19c0.04,0.06,0.08,0.12,0.15,0.18c0.07,0.06,0.15,0.11,0.24,0.15s0.2,0.06,0.32,0.07
			c0.07,0.01,0.14,0.03,0.21,0.04c0.07,0.02,0.15,0.03,0.22,0.04c0.07,0.01,0.15,0.03,0.22,0.04c0.07,0.02,0.15,0.03,0.23,0.05
			c0.26,0.06,0.5,0.14,0.74,0.24c0.24,0.1,0.47,0.22,0.68,0.35c0.21,0.13,0.37,0.31,0.48,0.53c0.11,0.22,0.16,0.48,0.16,0.79
			c0,0.39-0.07,0.73-0.21,1.02c-0.14,0.28-0.35,0.51-0.64,0.69c-0.28,0.17-0.59,0.3-0.93,0.38c-0.34,0.08-0.7,0.12-1.1,0.12
			c-0.48,0-0.9-0.05-1.27-0.14c-0.37-0.09-0.67-0.24-0.9-0.42c-0.24-0.19-0.43-0.44-0.56-0.72c-0.13-0.29-0.2-0.62-0.22-0.99v-0.02
			H139.6z"/>
		<path class="st0" d="M150.01,67.29v1.36h-2.08v5.24h-1.8v-5.24h-2.08v-1.36H150.01z"/>
		<path class="st0" d="M153.53,67.29c0.01,0.01,0.03,0.02,0.04,0.02c0.02,0,0.03,0,0.04,0c0.01,0,0.03,0,0.04,0
			c0.01,0,0.03,0,0.05,0c0.31,0.01,0.61,0.04,0.89,0.1c0.28,0.06,0.55,0.15,0.82,0.26c0.26,0.12,0.45,0.29,0.58,0.52
			c0.13,0.23,0.2,0.51,0.2,0.85c0,0.27-0.04,0.5-0.11,0.7c-0.08,0.2-0.19,0.36-0.35,0.48c-0.15,0.12-0.32,0.22-0.51,0.3
			c-0.19,0.08-0.39,0.14-0.6,0.17c0.32,0.01,0.58,0.07,0.78,0.18s0.34,0.27,0.42,0.47c0.08,0.21,0.15,0.42,0.2,0.65
			c0.05,0.22,0.09,0.46,0.11,0.7c0,0.01,0,0.01,0,0.02s0,0.01,0,0.02c0,0.01,0,0.01,0,0.02c0,0.01,0,0.01,0.01,0.02
			c0.01,0.1,0.02,0.2,0.03,0.3c0.01,0.1,0.02,0.2,0.03,0.31c0.01,0.1,0.03,0.19,0.05,0.28c0.02,0.09,0.05,0.17,0.08,0.25h-2
			c-0.03-0.05-0.04-0.11-0.06-0.17c-0.02-0.07-0.03-0.14-0.04-0.22c-0.01-0.08-0.01-0.16-0.02-0.24c-0.01-0.08-0.01-0.17-0.02-0.25
			c0-0.01,0-0.02,0-0.03s0-0.02,0-0.03c-0.01-0.01-0.01-0.01-0.01-0.02c0-0.01,0-0.02,0-0.02c0-0.02,0-0.04,0-0.05
			c0-0.02,0-0.04,0-0.05c-0.01-0.18-0.03-0.35-0.06-0.51c-0.03-0.16-0.07-0.32-0.12-0.46c-0.05-0.15-0.13-0.26-0.25-0.33
			c-0.12-0.07-0.26-0.11-0.44-0.11l-0.86-0.02v2.52h-1.87v-6.6H153.53z M152.45,70.09h0.72c0.01,0.01,0.03,0.02,0.04,0.02
			c0.02,0,0.03,0,0.04,0s0.03,0,0.04,0c0.02,0,0.03,0,0.05,0c0.11-0.01,0.22-0.02,0.32-0.05c0.1-0.03,0.2-0.06,0.3-0.11
			c0.09-0.05,0.16-0.12,0.21-0.21c0.05-0.09,0.07-0.21,0.07-0.35c0-0.12-0.02-0.23-0.07-0.32c-0.05-0.09-0.12-0.17-0.22-0.23
			c-0.1-0.05-0.21-0.1-0.33-0.13c-0.12-0.03-0.25-0.05-0.39-0.05l-0.78-0.02V70.09z"/>
		<path class="st0" d="M159.13,67.29v6.6h-1.87v-6.6H159.13z"/>
		<path class="st0" d="M164.58,67.29l2.59,6.6h-2.08l-0.44-1.22h-2.58l-0.43,1.22h-1.94l2.65-6.6H164.58z M163.37,68.65l-0.87,2.66
			h1.65L163.37,68.65z"/>
	</g>
</g>
</svg>
